<?xml version="1.0" encoding="UTF-8"?>
<svg version="1.1" xmlns="http://www.w3.org/2000/svg" width="128" height="128">
<path d="M0 0 C42.24 0 84.48 0 128 0 C128 42.24 128 84.48 128 128 C85.76 128 43.52 128 0 128 C0 85.76 0 43.52 0 0 Z " fill="#A66CE1" transform="translate(0,0)"/>
<path d="M0 0 C27.39 0 54.78 0 83 0 C83 4.62 83 9.24 83 14 C61.22 14 39.44 14 17 14 C17 19.61 17 25.22 17 31 C36.8 31 56.6 31 77 31 C77 35.62 77 40.24 77 45 C57.2 45 37.4 45 17 45 C17 50.94 17 56.88 17 63 C38.78 63 60.56 63 83 63 C83 67.29 83 71.58 83 76 C55.61 76 28.22 76 0 76 C0 50.92 0 25.84 0 0 Z " fill="#FDFCFD" transform="translate(24,22)"/>
<path d="M0 0 C1.98 0 3.96 0 6 0 C6 1.65 6 3.3 6 5 C7.32 5 8.64 5 10 5 C10 9.62 10 14.24 10 19 C-9.8 19 -29.6 19 -50 19 C-50 21.97 -50 24.94 -50 28 C-53.3 28 -56.6 28 -60 28 C-60 22.06 -60 16.12 -60 10 C-40.2 10 -20.4 10 0 10 C0 6.7 0 3.4 0 0 Z " fill="#754A99" transform="translate(101,57)"/>
<path d="M0 0 C1.65 0 3.3 0 5 0 C5 1.65 5 3.3 5 5 C6.32 5 7.64 5 9 5 C9 9.29 9 13.58 9 18 C-18.39 18 -45.78 18 -74 18 C-74 16.68 -74 15.36 -74 14 C-75.65 14 -77.3 14 -79 14 C-79 12.68 -79 11.36 -79 10 C-52.93 10 -26.86 10 0 10 C0 6.7 0 3.4 0 0 Z " fill="#824794" transform="translate(108,89)"/>
<path d="M0 0 C1.32 0 2.64 0 4 0 C5 4 5 4 5 14 C-17.11 14 -39.22 14 -62 14 C-62 17.96 -62 21.92 -62 26 C-63.65 26 -65.3 26 -67 26 C-67 20.39 -67 14.78 -67 9 C-44.89 9 -22.78 9 0 9 C0 6.03 0 3.06 0 0 Z " fill="#3C224A" transform="translate(108,27)"/>
<path d="M0 0 C1.65 0 3.3 0 5 0 C5 4.62 5 9.24 5 14 C-17.11 14 -39.22 14 -62 14 C-62 16.64 -62 19.28 -62 22 C-63.65 22 -65.3 22 -67 22 C-67 18.04 -67 14.08 -67 10 C-44.89 10 -22.78 10 0 10 C0 6.7 0 3.4 0 0 Z " fill="#894A99" transform="translate(113,31)"/>
<path d="M0 0 C0.495 1.485 0.495 1.485 1 3 C1.66 3 2.32 3 3 3 C3.33 2.01 3.66 1.02 4 0 C4 4.29 4 8.58 4 13 C-23.39 13 -50.78 13 -79 13 C-79 11.68 -79 10.36 -79 9 C-52.93 9 -26.86 9 0 9 C0 6.03 0 3.06 0 0 Z " fill="#381E49" transform="translate(108,90)"/>
<path d="M0 0 C1.32 0 2.64 0 4 0 C4 4.29 4 8.58 4 13 C-15.8 13 -35.6 13 -56 13 C-56 17.29 -56 21.58 -56 26 C-57.65 26 -59.3 26 -61 26 C-61 20.39 -61 14.78 -61 9 C-40.87 9 -20.74 9 0 9 C0 6.03 0 3.06 0 0 Z " fill="#3E254E" transform="translate(102,58)"/>
<path d="M0 0 C1.32 0 2.64 0 4 0 C5 4 5 4 5 14 C-17.11 14 -39.22 14 -62 14 C-62 13.67 -62 13.34 -62 13 C-44.84 12.67 -27.68 12.34 -10 12 C-10 11.67 -10 11.34 -10 11 C-28.81 10.67 -47.62 10.34 -67 10 C-67 9.67 -67 9.34 -67 9 C-44.89 9 -22.78 9 0 9 C0 6.03 0 3.06 0 0 Z " fill="#56315D" transform="translate(108,27)"/>
<path d="M0 0 C1.98 0 3.96 0 6 0 C6 1.65 6 3.3 6 5 C7.32 5 8.64 5 10 5 C10 9.62 10 14.24 10 19 C1.09 19 -7.82 19 -17 19 C-17 18.67 -17 18.34 -17 18 C-14.69 18 -12.38 18 -10 18 C-10 17.01 -10 16.02 -10 15 C-5.05 15 -0.1 15 5 15 C5 10.38 5 5.76 5 1 C3.68 1 2.36 1 1 1 C1 3.97 1 6.94 1 10 C0.67 10 0.34 10 0 10 C0 6.7 0 3.4 0 0 Z " fill="#9B4B91" transform="translate(101,57)"/>
<path d="M0 0 C0.33 0.99 0.66 1.98 1 3 C1.66 3 2.32 3 3 3 C3.33 2.01 3.66 1.02 4 0 C4 4.29 4 8.58 4 13 C0.04126368 13.08060775 -3.91584762 13.14031373 -7.875 13.1875 C-9.56689453 13.22520508 -9.56689453 13.22520508 -11.29296875 13.26367188 C-12.90751953 13.27817383 -12.90751953 13.27817383 -14.5546875 13.29296875 C-16.04718018 13.31653442 -16.04718018 13.31653442 -17.56982422 13.34057617 C-18.37178223 13.22818604 -19.17374023 13.1157959 -20 13 C-20.66 12.01 -21.32 11.02 -22 10 C-11.605 9.505 -11.605 9.505 -1 9 C-0.67 6.03 -0.34 3.06 0 0 Z " fill="#4F244A" transform="translate(108,90)"/>
<path d="M0 0 C1.98 0 3.96 0 6 0 C6.33 0.66 6.66 1.32 7 2 C6.34 2 5.68 2 5 2 C5 6.62 5 11.24 5 16 C3.35 16 1.7 16 0 16 C0 10.72 0 5.44 0 0 Z " fill="#322754" transform="translate(41,37)"/>
<path d="M0 0 C7.26 0.33 14.52 0.66 22 1 C22 1.99 22 2.98 22 4 C14.74 4 7.48 4 0 4 C0 2.68 0 1.36 0 0 Z " fill="#312754" transform="translate(29,99)"/>
<path d="M0 0 C1.32 0 2.64 0 4 0 C3.67 3.96 3.34 7.92 3 12 C1.68 11.67 0.36 11.34 -1 11 C-0.67 10.67 -0.34 10.34 0 10 C0.07205511 8.31391034 0.08386068 6.62499341 0.0625 4.9375 C0.05347656 4.01839844 0.04445313 3.09929688 0.03515625 2.15234375 C0.02355469 1.44207031 0.01195313 0.73179688 0 0 Z " fill="#5F2A54" transform="translate(108,27)"/>
<path d="M0 0 C1.65 0 3.3 0 5 0 C5 1.32 5 2.64 5 4 C3.35 4 1.7 4 0 4 C0 2.68 0 1.36 0 0 Z " fill="#3B3477" transform="translate(29,99)"/>
</svg>
